<?xml version="1.0" encoding="UTF-8" standalone="no"?>
<!DOCTYPE svg PUBLIC "-//W3C//DTD SVG 1.1//EN"
 "http://www.w3.org/Graphics/SVG/1.1/DTD/svg11.dtd">
<!-- Generated by graphviz version 2.43.0 (0)
 -->
<!-- Title: finite_state_machine Pages: 1 -->
<svg width="372pt" height="154pt"
 viewBox="0.00 0.00 372.00 154.00" xmlns="http://www.w3.org/2000/svg" xmlns:xlink="http://www.w3.org/1999/xlink">
<g id="graph0" class="graph" transform="scale(1 1) rotate(0) translate(4 150)">
<title>finite_state_machine</title>
<polygon fill="white" stroke="transparent" points="-4,4 -4,-150 368,-150 368,4 -4,4"/>
<!-- 0 -->
<g id="node1" class="node">
<title>0</title>
<ellipse fill="none" stroke="black" cx="18" cy="-77" rx="18" ry="18"/>
<text text-anchor="middle" x="18" y="-73.3" font-family="Times,serif" font-size="14.00">0</text>
</g>
<!-- 2 -->
<g id="node2" class="node">
<title>2</title>
<ellipse fill="none" stroke="black" cx="182" cy="-128" rx="18" ry="18"/>
<text text-anchor="middle" x="182" y="-124.3" font-family="Times,serif" font-size="14.00">2</text>
</g>
<!-- 0&#45;&gt;2 -->
<g id="edge1" class="edge">
<title>0&#45;&gt;2</title>
<path fill="none" stroke="black" d="M34.05,-85.89C40.13,-89.29 47.29,-93.06 54,-96 89.27,-111.46 98.33,-116.02 136,-124 141.66,-125.2 147.79,-126.04 153.66,-126.63"/>
<polygon fill="black" stroke="black" points="153.51,-130.13 163.76,-127.44 154.07,-123.15 153.51,-130.13"/>
<text text-anchor="middle" x="100" y="-122.8" font-family="Times,serif" font-size="14.00">5</text>
</g>
<!-- 3 -->
<g id="node3" class="node">
<title>3</title>
<ellipse fill="none" stroke="black" cx="100" cy="-77" rx="18" ry="18"/>
<text text-anchor="middle" x="100" y="-73.3" font-family="Times,serif" font-size="14.00">3</text>
</g>
<!-- 0&#45;&gt;3 -->
<g id="edge2" class="edge">
<title>0&#45;&gt;3</title>
<path fill="none" stroke="black" d="M36.36,-77C46.7,-77 60.06,-77 71.78,-77"/>
<polygon fill="black" stroke="black" points="71.95,-80.5 81.95,-77 71.95,-73.5 71.95,-80.5"/>
<text text-anchor="middle" x="59" y="-80.8" font-family="Times,serif" font-size="14.00">7</text>
</g>
<!-- 1 -->
<g id="node4" class="node">
<title>1</title>
<ellipse fill="none" stroke="black" cx="182" cy="-18" rx="18" ry="18"/>
<text text-anchor="middle" x="182" y="-14.3" font-family="Times,serif" font-size="14.00">1</text>
</g>
<!-- 0&#45;&gt;1 -->
<g id="edge3" class="edge">
<title>0&#45;&gt;1</title>
<path fill="none" stroke="black" d="M32.55,-65.5C44.71,-55.81 63.44,-42.39 82,-35 105.21,-25.76 133.44,-21.53 153.81,-19.61"/>
<polygon fill="black" stroke="black" points="154.28,-23.08 163.96,-18.78 153.7,-16.11 154.28,-23.08"/>
<text text-anchor="middle" x="100" y="-38.8" font-family="Times,serif" font-size="14.00">5</text>
</g>
<!-- 4 -->
<g id="node5" class="node">
<title>4</title>
<ellipse fill="none" stroke="black" cx="264" cy="-71" rx="18" ry="18"/>
<text text-anchor="middle" x="264" y="-67.3" font-family="Times,serif" font-size="14.00">4</text>
</g>
<!-- 2&#45;&gt;4 -->
<g id="edge4" class="edge">
<title>2&#45;&gt;4</title>
<path fill="none" stroke="black" d="M197.3,-117.81C209.25,-109.3 226.49,-97.01 240.32,-87.16"/>
<polygon fill="black" stroke="black" points="242.71,-89.76 248.82,-81.1 238.65,-84.05 242.71,-89.76"/>
<text text-anchor="middle" x="223" y="-105.8" font-family="Times,serif" font-size="14.00">1</text>
</g>
<!-- 3&#45;&gt;2 -->
<g id="edge6" class="edge">
<title>3&#45;&gt;2</title>
<path fill="none" stroke="black" d="M115.67,-86.35C127.4,-93.83 144.06,-104.45 157.63,-113.1"/>
<polygon fill="black" stroke="black" points="156.11,-116.28 166.42,-118.71 159.87,-110.38 156.11,-116.28"/>
<text text-anchor="middle" x="141" y="-108.8" font-family="Times,serif" font-size="14.00">6</text>
</g>
<!-- 3&#45;&gt;1 -->
<g id="edge7" class="edge">
<title>3&#45;&gt;1</title>
<path fill="none" stroke="black" d="M114.04,-65.65C120.51,-60.16 128.53,-53.56 136,-48 142.88,-42.87 150.59,-37.58 157.65,-32.9"/>
<polygon fill="black" stroke="black" points="159.69,-35.75 166.14,-27.35 155.86,-29.89 159.69,-35.75"/>
<text text-anchor="middle" x="141" y="-51.8" font-family="Times,serif" font-size="14.00">4</text>
</g>
<!-- 3&#45;&gt;4 -->
<g id="edge5" class="edge">
<title>3&#45;&gt;4</title>
<path fill="none" stroke="black" d="M118.03,-76.37C146.03,-75.33 202.04,-73.26 235.65,-72.01"/>
<polygon fill="black" stroke="black" points="235.85,-75.51 245.71,-71.64 235.59,-68.51 235.85,-75.51"/>
<text text-anchor="middle" x="182" y="-77.8" font-family="Times,serif" font-size="14.00">2</text>
</g>
<!-- 1&#45;&gt;4 -->
<g id="edge8" class="edge">
<title>1&#45;&gt;4</title>
<path fill="none" stroke="black" d="M197.67,-27.72C209.59,-35.61 226.6,-46.88 240.27,-55.94"/>
<polygon fill="black" stroke="black" points="238.42,-58.91 248.69,-61.52 242.29,-53.08 238.42,-58.91"/>
<text text-anchor="middle" x="223" y="-50.8" font-family="Times,serif" font-size="14.00">2</text>
</g>
<!-- 5 -->
<g id="node6" class="node">
<title>5</title>
<ellipse fill="none" stroke="black" cx="346" cy="-30" rx="18" ry="18"/>
<text text-anchor="middle" x="346" y="-26.3" font-family="Times,serif" font-size="14.00">5</text>
</g>
<!-- 1&#45;&gt;5 -->
<g id="edge9" class="edge">
<title>1&#45;&gt;5</title>
<path fill="none" stroke="black" d="M200.03,-19.26C228.03,-21.34 284.04,-25.48 317.65,-27.97"/>
<polygon fill="black" stroke="black" points="317.48,-31.47 327.71,-28.72 318,-24.49 317.48,-31.47"/>
<text text-anchor="middle" x="264" y="-29.8" font-family="Times,serif" font-size="14.00">3</text>
</g>
<!-- 4&#45;&gt;5 -->
<g id="edge10" class="edge">
<title>4&#45;&gt;5</title>
<path fill="none" stroke="black" d="M280.42,-63.09C291.82,-57.25 307.57,-49.18 320.66,-42.47"/>
<polygon fill="black" stroke="black" points="322.32,-45.56 329.62,-37.88 319.13,-39.33 322.32,-45.56"/>
<text text-anchor="middle" x="305" y="-55.8" font-family="Times,serif" font-size="14.00">2</text>
</g>
</g>
</svg>
